<svg width="215" height="230" viewBox="0 0 215 230" fill="none" xmlns="http://www.w3.org/2000/svg">
<path fill-rule="evenodd" clip-rule="evenodd" d="M18.4735 102.131C18.4735 102.131 4.02683 139.962 4.32358 198.988C1.2051 199.235 0 197.02 0 197.02C0 197.02 0.545951 207.768 7.86106 211.588C3.53355 210.742 1.17916 211.194 1.17916 211.194C1.17916 211.194 7.29428 223.005 16.9013 223.793C14.5551 224.115 11.0055 226.156 11.0055 226.156C11.0055 226.156 36.6101 235.775 58.958 224.581C81.3058 213.386 132.066 188.751 132.066 188.751C132.066 188.751 129.608 210.147 145.43 207.257C150.851 209.965 154.47 207.65 154.47 207.65C154.47 207.65 170.78 214.834 171.371 195.839C176.154 196.903 179.625 190.72 179.625 190.72L215 190C215 190 211.97 160.04 179.625 132.055C177.798 113.335 163.117 98.5879 163.117 98.5879C163.117 98.5879 177.219 50.3532 149.753 31.2606C151.782 19.1657 149.753 9.21189 149.753 9.21189C149.753 9.21189 152.946 6.48691 153.684 6.06208C154.421 5.63725 145.902 -1.65891 120.667 3.69972C103.504 -1.36046 66.9888 -2.47235 44.808 8.42444C35.2014 6.88103 4.25794 8.7973 1.17916 17.4802C0.118309 21.1871 8.64717 28.1108 8.64717 28.1108C8.64717 28.1108 8.78709 41.0904 14.543 46.2222C11.2952 49.0216 7.04587 59.7117 7.07495 63.1525C8.19044 63.7943 10.2194 62.365 10.2194 62.365C10.2194 62.365 7.08557 69.0789 8.64717 76.933C9.743 79.0335 12.1846 75.7518 12.1846 75.7518C12.1846 75.7518 8.8488 91.402 18.4735 102.131Z" fill="#B7CDDF"/>
<path fill-rule="evenodd" clip-rule="evenodd" d="M160.364 88.3509C158.951 96.1321 143.856 106.069 143.856 106.069C143.856 106.069 148.853 107.022 152.11 103.313C149.633 107.501 144.642 112.368 144.642 112.368C144.642 112.368 150.815 110.576 151.717 109.218C149.752 114.562 146.732 146.548 104.158 148.985C110.089 147.113 112.805 144.26 112.805 144.26C112.805 144.26 96.7936 149.691 84.5051 147.804C88.1063 149.866 91.9732 150.953 91.9732 150.953C91.9732 150.953 73.693 149.274 67.9969 145.441C77.4734 144.6 77.8232 143.866 77.8232 143.866C77.8232 143.866 58.2649 141.285 55.0262 136.779C59.4335 143.044 64.0664 147.41 64.0664 147.41C64.0664 147.41 52.7547 142.867 49.5234 140.323C52.9823 140.292 54.2401 137.567 54.2401 137.567C54.2401 137.567 32.1823 135.469 33.8013 128.905C35.8648 126.285 38.7007 125.816 40.0693 125.751C40.5779 125.768 40.8763 125.755 40.8763 125.755C40.8763 125.755 40.5673 125.727 40.0693 125.751C37.1285 125.652 26.9641 124.538 24.368 113.943C28.7301 117.434 40.0434 115.703 43.6276 113.549C43.6276 113.549 19.9367 103.796 23.975 98.5878C28.0132 93.38 36.9457 97.0129 36.9457 97.0129C36.9457 97.0129 44.4184 86.7878 53.0609 93.0756C56.9246 97.9275 65.6311 109.686 85.2912 102.131C92.6461 99.0043 98.262 93.0756 98.262 93.0756C98.262 93.0756 85.2409 102.743 78.6093 94.6505C71.9778 86.5582 81.8359 84.3034 88.4357 84.4136C97.5443 86.5582 99.0481 88.3509 99.0481 88.3509C99.0481 88.3509 110.958 76.278 116.735 81.6575C122.513 87.037 118.233 105.098 99.0481 93.0756C109.85 99.9619 127.162 111.678 139.533 85.5948C145.451 80.3354 161.777 80.5696 160.364 88.3509ZM108.088 72.9955C107.562 73.6353 107.995 68.9657 114.377 67.0896C120.76 65.2135 134.534 59.0229 139.533 47.797C142.289 47.9155 147.995 52.4256 141.498 57.6402C135 62.8547 112.798 67.2672 108.088 72.9955ZM103.765 68.6645C103.765 68.6645 95.2846 62.1775 101.406 50.9468C107.528 39.7161 130.099 42.6785 130.099 42.6785C130.099 42.6785 99.0552 42.0442 103.765 68.6645ZM101.406 78.9014C98.4526 80.5811 97.0828 80.8701 97.0828 80.8701C97.0828 80.8701 93.5135 79.5416 92.3662 80.0826C92.3662 80.0826 90.9665 72.4376 93.5454 70.2394C96.1242 68.0412 101.931 73.2333 101.406 78.9014ZM58.9567 50.9468C62.2277 47.9155 87.9231 41.1517 83.326 72.6018C83.326 72.6018 81.5875 51.6193 58.9567 50.9468ZM73.4997 70.2394C74.6741 71.1663 79.7885 74.9641 79.7885 74.9641C79.7885 74.9641 66.554 71.5612 56.2053 71.0269C45.8566 70.4926 30.2678 61.3002 33.8013 58.0339C37.3348 54.7675 40.4832 58.4276 40.4832 58.4276C40.4832 58.4276 55.6177 72.1207 73.4997 70.2394Z" fill="#CBDCEB"/>
<path fill-rule="evenodd" clip-rule="evenodd" d="M47.1663 8.81816C47.1663 8.81816 41.5929 13.9346 58.9579 8.81816C62.6444 7.05269 69.0905 5.78804 74.287 6.06207C68.4521 6.33611 57.7458 10.0092 63.2815 12.3617C66.9939 13.7094 77.7899 9.63397 78.6106 9.99934C76.2401 10.3647 72.5159 13.9374 80.1828 13.1492C85.3884 12.7259 84.9651 10.4714 81.755 9.60562C91.8746 10.1159 108.539 12.0018 104.552 8.42444C100.93 5.3951 98.6563 5.27462 98.6563 5.27462C98.6563 5.27462 123.846 10.5557 120.667 7.24325C117.488 3.93083 87.6457 -4.46895 47.1663 8.81816Z" fill="#CBDCEB"/>
<path opacity="0.6" fill-rule="evenodd" clip-rule="evenodd" d="M155.648 135.598C158.018 131.821 161.98 136.863 161.544 138.748C161.108 140.634 155.648 135.598 155.648 135.598ZM165.081 158.041C161.827 147.277 152.503 141.111 152.503 141.111C156.812 133.988 165.319 152.294 165.081 158.041ZM120.666 133.236C115.905 135.532 110.447 124.574 110.447 124.574C114.717 124.742 125.427 130.94 120.666 133.236ZM109.661 88.7448C105.784 89.8697 104.551 86.3825 104.551 86.3825C103.672 83.1114 109.812 81.3294 111.626 81.6578C113.44 81.9861 113.537 87.62 109.661 88.7448ZM102.193 108.431C96.7925 109.91 94.0706 104.94 95.1177 104.494C96.1648 104.048 102.193 101.344 102.193 101.344C105.835 101.512 107.593 106.952 102.193 108.431ZM79.0025 90.7135C77.7498 85.7974 82.933 85.595 82.933 85.595C85.6125 84.6725 88.5026 87.2845 88.8288 89.5323C89.1551 91.7801 80.2552 95.6296 79.0025 90.7135ZM74.2859 134.023C73.0474 132.452 79.7886 128.118 79.7886 128.118C81.0444 133.401 75.5244 135.595 74.2859 134.023ZM70.7484 130.086C69.7402 128.687 75.072 125.361 75.072 125.361C75.1978 128.003 71.7566 131.485 70.7484 130.086ZM71.5345 180.483C72.2388 182.443 53.4541 189.933 53.4541 189.933C53.6628 186.381 70.8302 178.523 71.5345 180.483ZM35.3736 154.104C37.2512 153.268 41.4172 158.394 41.2694 160.009C41.1216 161.625 35.3736 154.104 35.3736 154.104ZM23.582 139.536C28.7971 140.302 37.8011 147.179 37.3389 150.954C36.8767 154.728 23.582 139.536 23.582 139.536ZM87.2566 127.33C89.0568 131.566 81.3019 145.408 79.3956 139.929C77.4893 134.451 87.2566 127.33 87.2566 127.33ZM104.158 134.417C108.805 135.13 109.016 139.663 106.123 139.929C103.23 140.196 103.729 134.351 104.158 134.417ZM115.163 137.173C113.901 138.206 110.84 132.842 110.84 132.842C115.277 131.458 116.426 136.14 115.163 137.173ZM158.792 155.285C158.298 159.57 155.648 150.56 155.648 150.56C157.048 150.236 159.286 150.999 158.792 155.285Z" fill="white"/>
<path fill-rule="evenodd" clip-rule="evenodd" d="M106.518 65.1211C106.518 65.1211 105.471 62.2749 107.304 57.2466C110.554 51.3769 118.183 44.2111 138.748 44.2536C136.324 48.75 134.128 53.6027 130.494 57.2466C124.889 62.8667 116.453 66.5149 106.518 65.1211ZM40.0918 54.0968C40.0918 54.0968 70.3498 47.2156 78.2179 65.1211C77.7227 66.6193 76.5726 68.2576 73.5013 69.4521C66.0848 69.9809 53.1962 67.9414 45.2015 61.9713C43.509 59.5613 40.9373 56.6328 40.0918 54.0968Z" fill="#FD9717"/>
<path fill-rule="evenodd" clip-rule="evenodd" d="M112.021 65.5147C112.021 65.5147 117.575 54.7774 132.066 56.8527C128.758 61.1404 121.375 67.8574 112.021 65.5147ZM46.3809 63.5461C65.7391 58.7308 75.3614 69.4697 73.1085 70.2394C59.5525 70.2284 46.3809 63.5461 46.3809 63.5461Z" fill="#FDD226"/>
<path fill-rule="evenodd" clip-rule="evenodd" d="M136.781 50.5528C136.781 50.5528 132.055 49.7779 125.829 51.2067L126.562 49.3716L125.776 47.0092L121.452 47.4029L118.308 49.3716C117.711 52.143 118.592 53.1703 119.127 53.527C114.37 55.7846 109.417 59.5809 105.337 65.9081C105.337 65.9081 104.627 58.0544 106.516 56.0649C108.405 54.0754 115.279 41.6923 139.14 43.4657C139.27 45.0134 136.781 50.5528 136.781 50.5528ZM125.829 51.2067L125.776 51.3402L119.487 53.7026C119.487 53.7026 119.332 53.664 119.127 53.527C121.45 52.4245 123.725 51.6898 125.829 51.2067ZM42.0556 57.6398C40.2534 57.4894 40.5934 56.7835 39.6973 53.7026C69.7407 46.7852 78.6095 62.7583 78.6095 62.7583C78.6095 62.7583 80.0941 66.0361 77.8234 67.0893C60.3082 54.5266 42.0556 57.6398 42.0556 57.6398ZM67.604 55.2775C66.6517 53.925 59.9155 54.3573 58.5638 54.8838V58.4273L67.211 60.0022C67.211 60.0022 68.5564 56.6299 67.604 55.2775Z" fill="#E66C13"/>
<path fill-rule="evenodd" clip-rule="evenodd" d="M125.384 54.4908L119.095 54.0971L117.13 48.9786L124.991 45.4351L125.777 48.1911L125.384 54.4908ZM60.5302 61.5779L58.1719 54.4908C59.373 52.2347 68.3913 55.672 68.3913 55.672L66.0329 60.3967L60.5302 61.5779Z" fill="white"/>
<path opacity="0.231" fill-rule="evenodd" clip-rule="evenodd" d="M193.383 168.671C181.159 166.161 183.557 137.567 183.557 137.567C190.822 141 203.996 163.159 203.996 163.159C203.996 163.159 205.607 171.182 193.383 168.671ZM110.449 187.57C93.7001 183.362 105.732 164.734 105.732 164.734C113.135 161.988 122.263 163.629 129.708 166.309C123.172 166.517 127.198 191.779 110.449 187.57ZM76.6463 206.075C55.4301 211.034 59.352 178.121 59.352 178.121C69.7699 172.491 90.7345 166.101 87.2588 169.459C83.783 172.816 97.8625 201.116 76.6463 206.075ZM22.7981 228.912C17.3967 227.618 13.7579 226.155 13.7579 226.155L18.8675 223.399C18.8675 223.399 4.65829 218.105 3.14543 212.769C9.03493 212.788 10.2204 211.981 10.2204 211.981C10.2204 211.981 1.4494 206.537 0.787109 199.776C4.64846 200.842 4.71764 200.169 4.71764 200.169L5.11069 188.358C5.11069 188.358 31.1143 172.155 41.6646 184.027C47.9657 192.191 20.2487 208.372 22.7981 228.912ZM27.1217 170.64C12.7206 170.785 5.8968 175.365 5.8968 175.365C5.8968 175.365 6.70452 159.785 9.04122 147.41C40.5759 144.51 41.5227 170.495 27.1217 170.64Z" fill="#224252"/>
<path opacity="0.122" fill-rule="evenodd" clip-rule="evenodd" d="M149.36 74.1769C154.579 68.4493 153.078 52.2758 152.898 51.3407C152.717 50.4056 153.52 51.1706 156.828 53.3094C159.034 62.4104 152.637 72.9422 149.36 74.1769ZM155.649 72.9957C156.337 72.7406 150.028 79.1284 148.574 79.2953C147.121 79.4623 149.692 75.2061 155.649 72.9957ZM138.355 81.6577C137.412 83.7724 135.603 87.9573 135.603 87.9573C135.603 87.9573 134.155 76.857 134.817 75.7518C134.817 75.7518 138.264 73.6434 146.609 74.1769C141.494 77.6941 139.298 79.543 138.355 81.6577ZM126.17 132.842C126.17 132.842 139.339 127.33 142.678 120.637C139.398 129.194 133.638 131.267 133.638 131.267L139.534 130.48C139.534 130.48 132.553 138.936 128.528 139.536C129.248 141.572 135.34 140.718 138.748 136.78C142.156 132.841 158.813 121.778 156.828 126.149C154.843 130.52 142.867 155.032 117.523 157.253C121.084 154.944 130.94 151.964 132.852 148.591C123.732 152.402 98.8847 160.571 74.6801 154.497C88.7585 158.37 92.3675 160.009 92.3675 160.009C92.3675 160.009 55.4968 158.622 45.5942 143.079C56.2122 146.324 65.6399 148.591 65.6399 148.591C65.6399 148.591 50.1387 137.063 56.2067 137.173C56.2067 137.173 66.7798 142.141 71.5357 142.685C67.5757 144.445 59.7363 154.202 109.662 149.379C125.497 145.992 127.742 141.111 127.742 141.111C127.742 141.111 121.326 142.514 119.881 140.717C125.386 139.472 132.14 134.294 132.459 133.236C127.813 134.609 126.17 132.842 126.17 132.842ZM114.379 110.794C114.379 110.794 99.0789 134.417 83.3273 114.731C79.3807 114.496 74.0524 116.499 73.501 114.731C73.501 114.731 82.268 109.426 85.2926 111.187C88.3171 112.948 91.3711 119.373 99.4425 117.487C107.514 115.601 110.841 109.219 110.841 109.219C110.841 109.219 122.444 107.022 120.274 108.825C118.105 110.628 114.379 110.794 114.379 110.794ZM104.159 47.0097C97.605 48.9272 99.4425 30.8669 99.4425 30.8669C112.682 31.5299 110.713 45.0923 104.159 47.0097ZM71.5357 32.8355C72.7613 31.0571 73.317 29.1436 75.4663 31.2606C77.6155 33.3777 82.3777 40.0171 79.0037 48.1909C73.6437 47.4133 68.7659 36.7138 71.5357 32.8355ZM42.0567 82.4452C42.0567 82.4452 55.7735 78.5898 56.5997 82.8389C56.3226 87.5302 55.4205 88.3511 55.4205 88.3511C55.4205 88.3511 52.7584 81.5609 42.0567 82.4452ZM30.6582 92.2883C29.4032 91.5084 24.4177 88.2956 23.9763 85.2013C23.8686 84.4453 33.7889 88.5783 33.8026 90.3197C33.8164 92.0612 31.9132 93.0683 30.6582 92.2883ZM18.4736 66.3023C18.4736 66.3023 24.2872 83.0523 33.4096 87.1699C29.8446 87.088 13.178 78.1276 18.4736 66.3023Z" fill="#224252"/>
<path fill-rule="evenodd" clip-rule="evenodd" d="M140.32 44.2535C140.32 44.2535 138.245 52.3245 131.672 58.8214C126.285 64.1465 117.597 68.2941 106.91 67.0896C105.908 68.8504 106.123 70.1828 104.945 69.8457C104.945 69.8457 103.198 62.2165 104.945 57.2465C108.796 50.9968 114.484 42.4644 143.071 41.8911C143.703 43.54 140.32 44.2535 140.32 44.2535ZM107.303 57.2465C105.47 62.2748 106.517 65.121 106.517 65.121C116.452 66.5148 124.888 62.8665 130.493 57.2465C134.127 53.6025 136.323 48.7498 138.747 44.2535C118.182 44.211 110.553 51.3768 107.303 57.2465ZM109.268 80.4764C107.331 82.8872 101.436 83.7549 100.621 86.776C100.224 89.0643 100.228 93.8631 100.228 93.8631C100.228 93.8631 133.142 111.387 134.817 76.1454C135.76 74.7209 136.782 76.5391 136.782 76.5391C136.782 76.5391 140.199 114.685 98.2629 94.6505C82.5608 106.758 53.8817 111.108 54.634 82.445C54.8635 79.7464 56.2062 82.445 56.2062 82.445C56.2062 82.445 57.4172 117.662 97.4768 93.4694C98.3427 89.5876 97.8698 86.776 97.8698 86.776C97.8698 86.776 90.2776 84.1101 86.4713 84.8074C86.6368 82.0497 91.226 77.8561 97.0837 80.4764C102.105 77.5474 106.084 77.1234 109.268 80.4764ZM69.57 71.4206C67.4864 71.2809 54.6242 69.6575 46.0914 64.3922C43.4933 62.8441 39.7416 58.6769 38.5188 54.4904C36.844 54.8054 35.2624 55.2759 35.7674 52.9155C35.7674 52.9155 79.3731 40.4402 82.9338 74.1767C81.1089 72.0022 80.7134 69.3709 79.3963 67.4834C78.7525 68.2933 75.6073 71.9581 69.57 71.4206ZM40.091 54.0967C40.9365 56.6326 43.5082 59.5612 45.2007 61.9712C53.1954 67.9413 66.084 69.9808 73.5005 69.452C76.5718 68.2574 77.7219 66.6191 78.2172 65.121C70.349 47.2155 40.091 54.0967 40.091 54.0967ZM101.407 115.124C110.881 112.007 111.234 107.644 111.234 107.644C111.234 107.644 110.698 117.276 97.4768 117.487C88.5155 117.697 85.2666 112.317 84.113 110.006C84.113 110.006 91.9335 118.242 101.407 115.124Z" fill="black"/>
<path fill-rule="evenodd" clip-rule="evenodd" d="M55.8125 52.522C55.8125 52.522 56.9724 65.3429 64.8527 66.3025C70.5264 65.5717 68.7833 54.4906 68.7833 54.4906C68.7833 54.4906 60.4855 51.0916 55.8125 52.522ZM116.736 49.3722C116.736 49.3722 116.317 61.0875 122.238 61.184C128.16 61.2805 127.348 44.6475 127.348 44.6475C127.348 44.6475 118.683 45.0813 116.736 49.3722ZM63.2805 54.8844C65.017 54.8844 66.818 56.0506 66.818 57.2467C66.818 58.4429 65.017 59.2154 63.2805 59.2154C60.7508 59.3374 59.35 57.2617 59.35 56.0655C59.35 54.8694 61.544 54.8844 63.2805 54.8844ZM121.38 48.0103C122.946 47.5646 125.268 47.3555 125.595 48.506C125.921 49.6565 124.127 51.7302 122.562 52.1763C120.996 52.622 119.462 52.0511 119.135 50.9006C118.809 49.7502 119.814 48.456 121.38 48.0103Z" fill="#050606"/>
<path fill-rule="evenodd" clip-rule="evenodd" d="M18.4735 102.131C18.4735 102.131 4.02683 139.962 4.32358 198.988C1.2051 199.235 0 197.02 0 197.02C0 197.02 0.545951 207.768 7.86106 211.588C3.53355 210.742 1.17916 211.194 1.17916 211.194C1.17916 211.194 7.29428 223.005 16.9013 223.793C14.5551 224.115 11.0055 226.156 11.0055 226.156C11.0055 226.156 36.6101 235.775 58.958 224.581C81.3058 213.386 132.066 188.751 132.066 188.751C132.066 188.751 126.664 210.432 145.43 207.257C150.851 209.965 154.47 207.65 154.47 207.65C154.47 207.65 170.78 214.834 171.371 195.839C176.154 196.903 179.625 190.72 179.625 190.72L215 190C215 190 211.97 160.04 179.625 132.055C177.798 113.335 163.117 98.5879 163.117 98.5879C163.117 98.5879 177.219 50.3532 149.753 31.2606C151.782 19.1657 149.753 9.21189 149.753 9.21189C149.753 9.21189 152.946 6.48691 153.684 6.06208C154.421 5.63725 145.902 -1.65891 120.667 3.69972C103.504 -1.36046 66.9888 -2.47235 44.808 8.42444C35.2014 6.88103 4.25794 8.7973 1.17916 17.4802C0.118309 21.1871 8.64717 28.1108 8.64717 28.1108C8.64717 28.1108 8.78709 41.0904 14.543 46.2222C11.2952 49.0216 7.04587 59.7117 7.07495 63.1525C8.19044 63.7943 10.2194 62.365 10.2194 62.365C10.2194 62.365 7.08557 69.0789 8.64717 76.933C9.743 79.0335 12.1846 75.7518 12.1846 75.7518C12.1846 75.7518 8.8488 91.402 18.4735 102.131ZM132.852 186.389C132.852 186.389 135.731 180.293 146.216 174.184C139.565 169.29 113.044 151.743 53.0622 182.846C53.7366 180.378 66.426 173.79 66.426 173.79C66.426 173.79 65.8718 170.018 60.5302 169.065C58.9171 165.726 54.8804 157.193 49.1316 153.316C51.9785 153.173 61.3524 160.375 62.1024 167.096C64.4057 167.178 69.1773 172.215 69.1773 172.215C69.1773 172.215 119.318 148.681 149.753 172.609C159.5 168 183.5 163.5 204 188.751C208.84 188.716 212.5 188.358 212.5 188.358C212.5 188.358 207.189 159.373 180.018 135.992C179.36 148.298 177.66 150.954 177.66 150.954C177.66 150.954 184.303 130.95 162.724 101.344C160.719 109.706 157.871 110.697 155.256 111.187C157.405 109.499 160.055 106.727 159.973 97.013C158.854 98.6064 156.435 98.9817 156.435 98.9817C156.435 98.9817 165.949 96.3276 163.903 56.8529C161.651 41.653 146.216 30.0794 146.216 30.0794C146.216 30.0794 145.562 26.3292 140.713 21.0237C143.734 21.3202 145.43 21.8112 145.43 21.8112C145.43 21.8112 141.83 14.6449 134.031 13.9366C137.832 13.2283 143.857 12.3617 143.857 12.3617C143.857 12.3617 137.89 8.32168 127.349 11.968C128.407 10.2198 137.988 4.6486 146.609 3.69972C136.485 2.95833 131.672 2.69177 120.667 6.45581C118.983 5.55181 74.6093 -3.37753 44.808 10.7868C40.1724 10.7388 25.9046 8.52405 6.6819 13.9366C11.5892 13.4358 33.2554 11.3439 41.2706 14.7241C36.5476 16.1332 27.6316 15.9978 20.4388 20.63C25.8806 19.7642 30.2651 21.4174 30.2651 21.4174C30.2651 21.4174 21.8931 21.1324 20.8318 24.961C25.6734 25.4697 26.3346 27.3233 26.3346 27.3233C26.3346 27.3233 17.1627 28.4364 15.7221 33.2292C18.8382 33.2501 22.011 35.1979 22.011 35.1979C22.011 35.1979 17.2 37.1449 17.2943 43.8599C19.6668 42.172 23.9762 40.3163 23.9762 40.3163C23.9762 40.3163 13.1382 46.6266 9.82633 60.7901C12.4177 59.7038 14.543 58.034 14.543 58.034C14.543 58.034 9.73946 66.3645 10.6124 74.9643C13.3497 72.4638 14.936 71.8145 14.936 71.8145C14.936 71.8145 6.45708 95.1172 31.4442 110.4C28.1591 110.018 19.2596 104.1 19.2596 104.1C19.2596 104.1 4.69816 144.31 5.50274 201.351C4.23633 201.024 1.17916 200.17 1.17916 200.17C1.17916 200.17 6.87253 210.137 14.1499 212.375C10.2426 213.368 3.93053 213.163 3.93053 213.163C3.93053 213.163 15.3825 223.538 23.5832 221.825C21.7382 223.846 16.1152 226.156 16.1152 226.156C16.1152 226.156 41.4891 236.268 89.6161 207.65C109.036 197.044 118.274 193.255 132.852 186.389ZM202.5 188.751C202.5 188.751 167.314 150.116 134.031 188.751C132.458 193.34 133.041 207.33 143.857 206.469C141.382 205.513 133.857 195.686 141.892 187.57C138.44 195.527 140.351 207.874 153.684 206.075C150.117 203.706 149.082 192.315 156.435 188.358C152.68 193.054 147.893 206.881 162.724 206.863C169.39 205.418 169.799 194.264 169.799 194.264C169.799 194.264 177.298 193.75 181.984 182.846C181.542 186.968 181.59 188.751 181.59 188.751H202.5Z" fill="black"/>
<path fill-rule="evenodd" clip-rule="evenodd" d="M105.731 26.9296C105.04 28.4809 104.944 26.9296 104.944 26.9296C104.944 26.9296 114.771 11.2053 127.349 6.84951C123.951 9.87924 116.457 13.1373 105.731 26.9296ZM102.979 24.1735L101.407 24.5672C102.499 14.0358 107.303 6.84951 107.303 6.84951C107.303 6.84951 108.249 5.22893 109.661 5.66833C101.652 15.4765 102.979 24.1735 102.979 24.1735ZM104.158 46.2222C105.257 42.4901 102.036 38.4654 101.014 35.9853C99.9916 33.5052 101.407 32.048 101.407 32.048C109.19 35.0569 105.996 44.4831 104.158 46.2222ZM73.5002 35.1979C76.2312 32.3256 79.5753 42.2267 78.2169 47.4034C74.2643 43.9634 73.5002 35.1979 73.5002 35.1979ZM40.8768 128.117C40.8768 128.117 59.2442 103.201 69.9628 96.2255V97.4067C69.9628 97.4067 52.0855 113.672 41.6629 129.692C40.7298 129.437 40.8768 128.117 40.8768 128.117ZM50.7032 13.1491C50.7032 13.1491 49.7414 12.957 50.3101 11.968C63.0309 15.219 69.9628 31.6543 69.9628 31.6543L68.7836 32.048C60.6596 13.7886 50.7032 13.1491 50.7032 13.1491ZM63.2809 33.2292C46.3501 21.7403 33.8019 25.3547 33.8019 25.3547C33.8019 25.3547 33.9025 25.9504 33.4088 24.5672C48.0025 21.2009 64.067 32.048 64.067 32.048L63.2809 33.2292ZM65.6392 94.6506C65.6392 94.6506 48.0139 96.0751 24.3686 114.731C23.9355 114.854 23.1895 115.124 23.1895 115.124C23.1895 115.124 36.9589 99.6785 66.4253 93.0757C65.5798 94.4742 65.6392 94.6506 65.6392 94.6506ZM74.6794 98.1942L76.6447 97.8004C76.6447 97.8004 63.8744 117.652 59.7434 135.205C58.3433 137.028 58.9573 135.205 58.9573 135.205C58.9573 135.205 62.7322 117.069 74.6794 98.1942ZM141.318 129.01C141.318 129.01 142.304 130.661 140.55 129.176C132.802 112.898 116.124 96.2066 116.124 96.2066L118.127 96.1744C133.795 112.086 141.318 129.01 141.318 129.01ZM122.321 93.2498C152.977 105.179 166.137 123.366 166.137 123.366C166.137 123.366 167.417 124.422 167.047 125.755C157.921 110.338 123.501 94.3758 122.571 94.4042L122.321 93.2498ZM126.213 90.7933C126.213 90.7933 126.234 90.6082 125.112 89.4207C155.306 89.6223 172.029 101.796 172.029 101.796C172.029 101.796 171.243 101.69 170.793 101.662C143.74 88.4459 126.213 90.7933 126.213 90.7933Z" fill="#5A6974"/>
<path fill-rule="evenodd" clip-rule="evenodd" d="M88.4375 83.6261C88.4375 83.6261 89.9641 80.224 93.1541 80.4763C96.3442 80.7287 98.2638 81.6575 98.2638 81.6575C98.2638 81.6575 102.374 77.1887 107.697 80.4763C106.741 81.4138 100.216 83.7002 99.443 85.5948C98.4419 85.9818 93.4536 82.0272 88.4375 83.6261Z" fill="#B06B83"/>
</svg>
